<?xml version="1.0" encoding="utf-8"?>
<!-- Generator: Adobe Illustrator 17.1.0, SVG Export Plug-In . SVG Version: 6.00 Build 0)  -->
<!DOCTYPE svg PUBLIC "-//W3C//DTD SVG 1.1//EN" "http://www.w3.org/Graphics/SVG/1.1/DTD/svg11.dtd">
<svg version="1.1" id="Layer_1" xmlns="http://www.w3.org/2000/svg" xmlns:xlink="http://www.w3.org/1999/xlink" x="0px" y="0px"
	 viewBox="0 0 123 81.7" enable-background="new 0 0 123 81.7" xml:space="preserve">
<g>
	<g>
		<polygon fill="#82BC00" points="62.4,16.9 66.9,38.2 71.9,38.2 		"/>
		<polygon fill="#FFDB00" points="57,24 53.3,38.2 58.3,38.2 		"/>
		<polygon fill="#003A5D" points="44.8,38.2 52.8,15.6 39.2,38.2 		"/>
		<polygon fill="#003A5D" points="54.3,21.4 46.2,38.2 51.4,38.2 		"/>
		<polygon fill="#82BC00" points="63.1,11.2 73.6,38.2 79.4,38.2 		"/>
		<polygon fill="#003A5D" points="53.4,7.3 31.4,38.2 37.6,38.2 		"/>
		<polygon fill="#FFDB00" points="60,38.2 65,38.2 60.4,22.1 		"/>
		<polygon fill="#82BC00" points="59.8,0 81.1,38.2 87.4,38.2 		"/>
	</g>
	<g>
		<g>
			<g>
				<path fill="#003A5D" d="M96.9,70.5c-2.8-0.1-5.7-0.1-8.4-0.1h-2.8c-1.3,0-2.4,0-4.3,0.1c-0.2-0.1-0.2-0.2-0.3-0.4
					c0-0.2,0-0.4,0.1-0.5l1.1-0.1c1.7-0.1,1.9-0.5,1.9-3.5V55.8c0-3-0.1-3.3-1.8-3.5l-0.5-0.1c-0.1-0.1-0.2-0.2-0.2-0.4
					c0-0.2,0.1-0.4,0.2-0.5c1.5,0.1,2.5,0.1,3.8,0.1h5.9c2,0,3.9,0,4.2-0.1l0.1,0l0,0.1c0.2,0.5,0.3,2.2,0.5,3.4l0,0.4l0,0
					c-0.1,0.1-0.3,0.2-0.5,0.2c-0.1,0-0.3,0-0.4-0.1l-0.1-0.2c-0.4-1.2-0.8-2.1-2.3-2.5c-0.7-0.1-1.6-0.2-3-0.2h-2.3
					c-0.9,0-0.9,0-0.9,1v5.7c0,0.7,0,0.7,1,0.7h1.8c1.4,0,2.3-0.1,2.7-0.2c0.3-0.1,0.5-0.2,0.7-0.9l0.3-1.2c0.1-0.1,0.3-0.2,0.5-0.2
					c0.2,0,0.4,0.1,0.5,0.2c0,0.4,0,0.7,0,1.2c0,0.5-0.1,1.1-0.1,1.7c0,0.6,0,1.2,0.1,1.7c0,0.4,0.1,0.8,0.1,1
					c-0.1,0.2-0.3,0.2-0.5,0.2c-0.2,0-0.4-0.1-0.5-0.2L93,62.3c-0.1-0.4-0.3-0.9-0.9-1c-0.5-0.1-1.3-0.1-2.4-0.1h-1.8
					c-0.9,0-1,0-1,0.7v4c0,1.5,0.1,2.4,0.6,2.9c0.3,0.3,0.9,0.6,3.8,0.6c2.3,0,3.3-0.1,4-0.4c0.6-0.3,1.4-1.3,2.2-2.7
					c0.1-0.1,0.2-0.1,0.3-0.1c0.2,0,0.5,0.1,0.6,0.3C98.1,67.5,97.4,69.7,96.9,70.5L96.9,70.5L96.9,70.5z"/>
				<path fill="#003A5D" d="M8.9,70.5c-0.4,0-1.1,0-1.9,0c-1,0-2,0-2.7,0c-0.9,0-1.7,0-2.5,0.1c-0.4,0-0.7,0-1.1,0
					c-0.2-0.1-0.2-0.2-0.3-0.4c0-0.2,0-0.4,0.1-0.5l0.6-0.1c1.6-0.2,1.7-0.5,1.7-3.5V55.3c0-2.1-0.1-2.5-1.5-2.7l-1-0.1
					C0.1,52.4,0,52.2,0,52c0-0.2,0.1-0.3,0.3-0.4C1.9,51.5,5,51.4,8,51.4c1.7,0,3.8,0.1,5.3,0.8c1.6,0.7,2.4,2,2.4,3.6
					c0,2.3-1.6,3.3-3.2,4c0,0.1,0.2,0.2,0.5,0.3c1.5,0.2,4.3,1.6,4.3,4.8C17.4,68.5,14.3,70.5,8.9,70.5z M8.1,60.8
					c-1.1,0-2.6,0.1-2.6,0.6v4.2c0,1,0.1,2.4,0.6,3c0.5,0.6,2.1,0.8,3.3,0.8c1.8,0,4.9-0.5,4.9-3.9C14.3,63.8,13.5,60.8,8.1,60.8z
					 M8.2,52.4c-0.8,0-2.1,0.1-2.3,0.2c-0.3,0.1-0.4,0.2-0.4,0.7V59c0,0.5,0.5,0.7,1.7,0.7c0.2,0,0.5,0,0.8,0
					c3.5-0.1,4.9-1.2,4.9-3.6C12.8,52.7,9.3,52.4,8.2,52.4z"/>
				<path fill="#003A5D" d="M35.4,70.5c-2.8-0.1-5.7-0.1-8.4-0.1h-2.8c-1.3,0-2.4,0-4.3,0.1c-0.2-0.1-0.2-0.2-0.3-0.4
					c0-0.2,0-0.4,0.1-0.5l1.1-0.1c1.7-0.1,1.9-0.5,1.9-3.5V55.8c0-3-0.1-3.3-1.8-3.5l-0.5-0.1c-0.1-0.1-0.2-0.2-0.2-0.4
					c0-0.2,0.1-0.4,0.2-0.5c1.5,0.1,2.5,0.1,3.8,0.1H30c2,0,3.9,0,4.2-0.1l0.1,0l0,0.1c0.2,0.4,0.3,2.2,0.5,3.4l0,0.4l0,0
					c-0.1,0.1-0.3,0.2-0.5,0.2c-0.1,0-0.3,0-0.4-0.1l-0.1-0.2c-0.4-1.2-0.8-2.1-2.3-2.5c-0.7-0.1-1.6-0.2-3-0.2h-2.3
					c-0.9,0-0.9,0-0.9,1v5.7c0,0.7,0,0.7,1,0.7h1.8c1.4,0,2.3-0.1,2.7-0.2c0.3-0.1,0.5-0.2,0.7-0.9l0.3-1.2c0.1-0.1,0.3-0.2,0.5-0.2
					c0.2,0,0.4,0.1,0.5,0.2c0,0.4,0,0.7,0,1.2c0,0.5-0.1,1.1-0.1,1.7c0,0.6,0,1.2,0.1,1.7c0,0.4,0.1,0.8,0.1,1
					c-0.1,0.2-0.3,0.2-0.5,0.2c-0.2,0-0.4-0.1-0.5-0.2l-0.3-1.1c-0.1-0.4-0.3-0.9-0.9-1c-0.5-0.1-1.3-0.1-2.4-0.1h-1.8
					c-0.9,0-1,0-1,0.7v4c0,1.5,0.1,2.4,0.6,2.9c0.3,0.3,0.9,0.6,3.8,0.6c2.3,0,3.3-0.1,4-0.4c0.6-0.3,1.4-1.3,2.2-2.7
					c0.1-0.1,0.2-0.1,0.3-0.1c0.2,0,0.5,0.1,0.6,0.3C36.6,67.5,35.9,69.7,35.4,70.5L35.4,70.5L35.4,70.5z"/>
				<path fill="#003A5D" d="M48.4,70.9c-1.3,0-3.6-0.5-5.8-1.8c-2.8-1.8-4.4-4.7-4.4-8c0-3.1,1.5-6,4-7.8c2.2-1.5,4.2-2.3,6.4-2.3
					c1.6,0,4,0.3,5.5,0.7l0.1,0c0.3,0.1,0.4,0.1,0.6,0.1c0,0,0.1,0,0.1,0l0.1,0l0,0.1c0,0.7,0.2,2.5,0.4,4.2l0,0l0,0
					c-0.1,0.1-0.3,0.2-0.5,0.2c-0.2,0-0.3,0-0.4-0.1c-0.5-1.8-1.5-4.1-6.1-4.1c-3.4,0-6.9,2.9-6.9,8.6c0,6,3.7,9.2,7.4,9.2
					c3,0,5-1.3,6.2-4c0.1-0.1,0.3-0.1,0.4-0.1c0.2,0,0.5,0.1,0.6,0.2c-0.2,1.6-1,3.5-1.5,4c-0.4,0.1-0.8,0.2-1.1,0.3
					C52.6,70.5,50.4,70.9,48.4,70.9z"/>
				<path fill="#003A5D" d="M79.1,70.5c-0.8-0.1-2-0.1-3.5-0.1c-1.4,0-2.5,0-3.8,0.1c-0.2,0-0.3-0.2-0.3-0.3c0-0.2,0-0.4,0.1-0.5
					l0.8-0.1c0.7-0.1,0.7-0.2,0.7-0.2c0-0.1-0.2-0.3-0.3-0.5l-0.1-0.1c-0.4-0.4-0.8-0.9-1.4-1.5c-0.3-0.3-0.7-0.7-1.2-1.2l-2.9-2.9
					c-1.5-1.5-2-2-2.6-2c-0.4,0-0.4,0.2-0.4,1.3v3.7c0,3,0.1,3.3,1.7,3.5l0.9,0.1c0.1,0.1,0.2,0.2,0.2,0.4c0,0.2-0.1,0.4-0.2,0.5
					c-1.5,0-2.6-0.1-3.9-0.1c-1.2,0-2.3,0-3.7,0.1c-0.1-0.1-0.2-0.2-0.3-0.3c0-0.2,0-0.4,0.1-0.5l0.7-0.1c1.6-0.2,1.7-0.5,1.7-3.5
					V55.8c0-3-0.1-3.4-1.8-3.5l-0.8-0.1c-0.1-0.1-0.2-0.2-0.2-0.4c0-0.2,0.1-0.4,0.2-0.5c1.6,0.1,2.6,0.1,4,0.1c1.2,0,2.2,0,3.7-0.1
					c0.2,0.1,0.3,0.3,0.3,0.5c0,0.2,0,0.4-0.2,0.4l-0.6,0.1c-1.8,0.2-1.8,0.5-1.8,3.5v3.3c0,0.7,0.1,1,0.3,1c0.3,0,0.6-0.2,0.8-0.3
					c0.4-0.3,1.3-1,1.6-1.4l3.4-3c0.6-0.5,2.1-2,2.4-2.4c0.1-0.2,0.2-0.3,0.2-0.4c0,0-0.1-0.1-0.5-0.2l-0.9-0.2
					c-0.2-0.1-0.2-0.3-0.2-0.5c0-0.2,0.1-0.3,0.3-0.4c1.1,0,2.4,0.1,3.5,0.1c1.1,0,2.2,0,3.1-0.1c0.2,0.1,0.3,0.3,0.3,0.4
					c0,0.2,0,0.3-0.2,0.4c-0.8,0.1-2,0.3-3,0.8c-0.8,0.4-2.6,1.7-4.4,3.3l-2.8,2.4c-0.4,0.4-0.7,0.6-0.7,0.8c0,0.2,0.2,0.4,0.6,0.8
					l1.4,1.4c2.4,2.5,4.4,4.6,6.5,6.6c0.8,0.7,1.5,1,2.5,1.1l0.9,0.1c0.2,0.1,0.2,0.3,0.2,0.5C79.4,70.3,79.3,70.5,79.1,70.5
					L79.1,70.5L79.1,70.5z"/>
				<path fill="#003A5D" d="M118.8,70.7c-2.9,0-4.5-0.9-6.6-3.6c-0.4-0.5-0.9-1.3-1.5-2.1c-0.5-0.8-1.1-1.6-1.6-2.2
					c-0.4-0.6-0.9-0.9-2.2-0.9c-1.4,0-1.4,0-1.4,0.5v3.6c0,3,0.1,3.2,1.8,3.5l0.7,0.1c0.2,0.1,0.2,0.3,0.2,0.5
					c0,0.2-0.1,0.3-0.2,0.4c-1.3,0-2.4-0.1-3.8-0.1c-1.2,0-2.3,0-3.9,0.1c-0.1-0.1-0.2-0.2-0.3-0.3c0-0.2,0-0.4,0.1-0.5l0.8-0.1
					c1.8-0.2,1.8-0.5,1.8-3.5V55.9c0-2.7-0.1-3.1-1.3-3.2l-1-0.1c-0.2-0.1-0.3-0.3-0.2-0.5c0-0.2,0.1-0.3,0.2-0.4
					c2-0.2,4.2-0.2,7.1-0.2c1.8,0,3.8,0.1,5.3,0.9c1.2,0.6,2.7,1.7,2.7,4.1c0,3.1-3.1,4.5-4,4.8c-0.1,0.1,0,0.3,0.2,0.5
					c2.4,3.5,4.1,5.9,6.3,7.5c0.6,0.4,1.3,0.7,2.1,0.8c0.1,0,0.2,0.1,0.2,0.2c0,0.1,0,0.2-0.1,0.3C119.9,70.7,119.4,70.7,118.8,70.7
					z M107.5,52.4c-2,0-2,0.1-2,0.8v6.7c0,0.4,0,0.8,0.1,0.9c0.1,0.1,0.8,0.1,2.1,0.1c1,0,2.3-0.1,3.2-0.7c1-0.7,1.5-1.9,1.5-3.5
					C112.5,54.8,111.2,52.4,107.5,52.4z"/>
			</g>
			<g>
				<g>
					<g>
						<path fill="#003A5D" d="M2.4,77.9h1.5c0.9,0,1.4,0.5,1.4,1.2v0c0,0.8-0.7,1.3-1.5,1.3H3.1v1.2H2.4V77.9z M3.8,79.8
							c0.5,0,0.8-0.3,0.8-0.7v0c0-0.4-0.3-0.7-0.8-0.7H3.1v1.3H3.8z"/>
						<path fill="#003A5D" d="M7.9,77.9h1.6c0.5,0,0.8,0.1,1.1,0.4c0.2,0.2,0.3,0.5,0.3,0.8v0c0,0.6-0.4,1-0.9,1.1l1.2,1.4h-0.9
							l-0.9-1.3H8.5v1.3H7.9V77.9z M9.5,79.8c0.5,0,0.8-0.2,0.8-0.6v0c0-0.4-0.3-0.6-0.8-0.6H8.5v1.2H9.5z"/>
						<path fill="#003A5D" d="M13.5,79.8L13.5,79.8c0-1,0.8-1.9,1.9-1.9s1.9,0.9,1.9,1.9v0c0,1-0.8,1.9-1.9,1.9
							C14.3,81.7,13.5,80.8,13.5,79.8z M16.7,79.8L16.7,79.8c0-0.7-0.5-1.3-1.3-1.3c-0.7,0-1.2,0.6-1.2,1.3v0c0,0.7,0.5,1.3,1.3,1.3
							C16.2,81.1,16.7,80.5,16.7,79.8z"/>
						<path fill="#003A5D" d="M20.1,77.9h2.7v0.6h-2.1v1h1.9v0.6h-1.9v1.5h-0.6V77.9z"/>
						<path fill="#003A5D" d="M25.5,77.9h2.7v0.6h-2.1v1H28V80h-1.9v1h2.1v0.6h-2.8V77.9z"/>
						<path fill="#003A5D" d="M30.8,81.1l0.4-0.5c0.4,0.3,0.7,0.5,1.2,0.5c0.4,0,0.7-0.2,0.7-0.5v0c0-0.3-0.1-0.4-0.8-0.6
							c-0.8-0.2-1.2-0.4-1.2-1.1v0c0-0.6,0.5-1.1,1.3-1.1c0.5,0,1,0.2,1.3,0.5l-0.3,0.5c-0.3-0.2-0.7-0.4-1-0.4
							c-0.4,0-0.6,0.2-0.6,0.4v0c0,0.3,0.2,0.4,0.9,0.6c0.8,0.2,1.2,0.5,1.2,1.1v0c0,0.7-0.5,1.1-1.3,1.1
							C31.7,81.7,31.2,81.5,30.8,81.1z"/>
						<path fill="#003A5D" d="M36,81.1l0.4-0.5c0.4,0.3,0.7,0.5,1.2,0.5c0.4,0,0.7-0.2,0.7-0.5v0c0-0.3-0.1-0.4-0.8-0.6
							c-0.8-0.2-1.2-0.4-1.2-1.1v0c0-0.6,0.5-1.1,1.3-1.1c0.5,0,1,0.2,1.3,0.5l-0.3,0.5c-0.3-0.2-0.7-0.4-1-0.4
							c-0.4,0-0.6,0.2-0.6,0.4v0c0,0.3,0.2,0.4,0.9,0.6c0.8,0.2,1.2,0.5,1.2,1.1v0c0,0.7-0.5,1.1-1.3,1.1C37,81.7,36.5,81.5,36,81.1
							z"/>
						<path fill="#003A5D" d="M41.7,77.9h0.6v3.7h-0.6V77.9z"/>
						<path fill="#003A5D" d="M45.1,79.8L45.1,79.8c0-1,0.8-1.9,1.9-1.9c1.1,0,1.9,0.9,1.9,1.9v0c0,1-0.8,1.9-1.9,1.9
							C45.9,81.7,45.1,80.8,45.1,79.8z M48.3,79.8L48.3,79.8c0-0.7-0.5-1.3-1.3-1.3c-0.7,0-1.2,0.6-1.2,1.3v0c0,0.7,0.5,1.3,1.3,1.3
							C47.7,81.1,48.3,80.5,48.3,79.8z"/>
						<path fill="#003A5D" d="M51.7,77.9h0.6l2,2.6v-2.6h0.6v3.7h-0.5l-2-2.6v2.6h-0.6V77.9z"/>
						<path fill="#003A5D" d="M59.1,77.9h0.6l1.6,3.7h-0.7l-0.4-0.9h-1.7l-0.4,0.9h-0.7L59.1,77.9z M60,80.2l-0.6-1.5l-0.6,1.5H60z"
							/>
						<path fill="#003A5D" d="M63.9,77.9h0.6V81h1.9v0.6h-2.6V77.9z"/>
						<path fill="#003A5D" d="M71.1,77.9h2.7v0.6h-2.1v1h1.9V80h-1.9v1h2.1v0.6h-2.8V77.9z"/>
						<path fill="#003A5D" d="M76.6,77.9H78c1.2,0,2,0.8,2,1.8v0c0,1-0.8,1.8-2,1.8h-1.4V77.9z M77.3,78.5V81H78
							c0.8,0,1.3-0.5,1.3-1.2v0c0-0.7-0.5-1.3-1.3-1.3H77.3z"/>
						<path fill="#003A5D" d="M82.6,80.1v-2.1h0.6V80c0,0.7,0.4,1,0.9,1c0.6,0,0.9-0.3,0.9-1v-2.1h0.6V80c0,1.1-0.6,1.7-1.6,1.7
							C83.2,81.7,82.6,81.1,82.6,80.1z"/>
						<path fill="#003A5D" d="M88.5,79.8L88.5,79.8c0-1.1,0.8-1.9,1.9-1.9c0.7,0,1.1,0.2,1.4,0.6l-0.4,0.5c-0.3-0.3-0.6-0.5-1-0.5
							c-0.7,0-1.2,0.6-1.2,1.3v0c0,0.7,0.5,1.3,1.2,1.3c0.5,0,0.7-0.2,1.1-0.5l0.4,0.4c-0.4,0.4-0.8,0.7-1.5,0.7
							C89.3,81.7,88.5,80.8,88.5,79.8z"/>
						<path fill="#003A5D" d="M95.8,77.9h0.6l1.6,3.7h-0.7L97,80.7h-1.7l-0.4,0.9h-0.7L95.8,77.9z M96.7,80.2l-0.6-1.5l-0.6,1.5
							H96.7z"/>
						<path fill="#003A5D" d="M101,78.5h-1.2v-0.6h3v0.6h-1.2v3.1H101V78.5z"/>
						<path fill="#003A5D" d="M105.5,77.9h0.6v3.7h-0.6V77.9z"/>
						<path fill="#003A5D" d="M109,79.8L109,79.8c0-1,0.8-1.9,1.9-1.9s1.9,0.9,1.9,1.9v0c0,1-0.8,1.9-1.9,1.9
							C109.8,81.7,109,80.8,109,79.8z M112.1,79.8L112.1,79.8c0-0.7-0.5-1.3-1.3-1.3c-0.7,0-1.2,0.6-1.2,1.3v0
							c0,0.7,0.5,1.3,1.3,1.3C111.6,81.1,112.1,80.5,112.1,79.8z"/>
						<path fill="#003A5D" d="M115.2,77.9h0.6l2,2.6v-2.6h0.6v3.7h-0.5l-2-2.6v2.6h-0.6V77.9z"/>
					</g>
				</g>
			</g>
			<g>
				<path fill="#003A5D" d="M120.8,79L120.8,79c0-0.6,0.5-1.1,1.1-1.1c0.6,0,1.1,0.5,1.1,1.1v0c0,0.6-0.5,1.1-1.1,1.1
					C121.3,80.1,120.8,79.6,120.8,79z M122.7,79L122.7,79c0-0.5-0.4-0.9-0.9-0.9c-0.5,0-0.9,0.4-0.9,0.9v0c0,0.5,0.4,0.9,0.9,0.9
					C122.4,79.8,122.7,79.4,122.7,79z M121.5,78.5h0.5c0.2,0,0.4,0.1,0.4,0.3c0,0.2-0.1,0.3-0.2,0.3l0.3,0.4h-0.3l-0.2-0.3h-0.2v0.3
					h-0.2V78.5z M122,78.9c0.1,0,0.2-0.1,0.2-0.1c0-0.1-0.1-0.1-0.2-0.1h-0.2v0.3H122z"/>
			</g>
		</g>
	</g>
</g>
</svg>
